<?xml version="1.0" encoding="utf-8"?>
<!-- Generator: Adobe Illustrator 25.4.1, SVG Export Plug-In . SVG Version: 6.00 Build 0)  -->
<svg version="1.1" id="Livello_1" xmlns="http://www.w3.org/2000/svg" xmlns:xlink="http://www.w3.org/1999/xlink" x="0px" y="0px"
	 viewBox="0 0 1080 1080" style="enable-background:new 0 0 1080 1080;" xml:space="preserve">
<style type="text/css">
	.st0{fill:#FFFFFF;}
	.st1{fill:#F9B042;}
	.st2{fill:#1399D7;}
	.st3{fill:#E94A4A;}
	.st4{fill:#1CA638;}
</style>
<circle class="st0" cx="540" cy="540" r="540"/>
<circle class="st1" cx="539.02" cy="995" r="85"/>
<circle class="st2" cx="540" cy="85" r="85"/>
<circle class="st3" cx="85" cy="540" r="85"/>
<circle class="st4" cx="995" cy="540" r="85"/>
<path class="st3" d="M440.83,9.09c0,0-344.96,43.83-431.75,431.82c0,0,85.41-66.96,170.73,14.09c0,0,44.68-218.48,278.1-275.86
	C457.92,179.14,373.67,107.13,440.83,9.09z"/>
<path class="st2" d="M625,179.82c0,0,83.34-90.55,14.12-170.73c0,0,350.68,49.8,431.8,431.83c0,0-85.52-66.97-170.06,17.06
	C900.87,457.97,855.1,234.3,625,179.82z"/>
<path class="st4" d="M900.79,622.37c0,0,62.64,82.65,170.04,17.21c0,0-47.88,350.66-431.55,431.3c0,0,67.95-87.01-17.98-169.85
	C621.31,901.03,843.59,859.88,900.79,622.37z"/>
<path class="st1" d="M9.17,639.58c0,0,81.75,67.23,170.65-14.58c0,0,45.87,222.81,278.1,275.86c0,0-84.33,79.45-18.31,169.82
	C439.61,1070.68,90.09,1018.11,9.17,639.58z"/>
<g>
	<g>
		<path d="M360.92,643.36c-2.34,0-4.25-0.74-5.73-2.24c-1.49-1.49-2.23-3.41-2.23-5.75V427.68c0-2.34,0.74-4.26,2.23-5.75
			c1.48-1.49,3.39-2.24,5.73-2.24h141.89c2.33,0,4.24,0.75,5.73,2.24c1.48,1.49,2.23,3.41,2.23,5.75v27.16
			c0,2.35-0.75,4.26-2.23,5.75c-1.49,1.49-3.4,2.24-5.73,2.24H402.6v54h93.85c2.33,0,4.24,0.75,5.73,2.24
			c1.48,1.49,2.23,3.41,2.23,5.75v27.16c0,2.13-0.75,3.94-2.23,5.43c-1.49,1.49-3.4,2.24-5.73,2.24H402.6v75.73
			c0,2.35-0.75,4.26-2.23,5.75c-1.49,1.49-3.4,2.24-5.73,2.24H360.92z"/>
		<path d="M554.67,643.36c-2.34,0-4.25-0.74-5.73-2.24c-1.49-1.49-2.23-3.41-2.23-5.75V427.68c0-2.34,0.74-4.26,2.23-5.75
			c1.48-1.49,3.39-2.24,5.73-2.24h84.31c26.51,0,47.4,6.13,62.67,18.37c15.27,12.25,22.91,29.88,22.91,52.88
			c0,15.55-3.71,28.55-11.13,38.98c-7.43,10.44-17.39,18.21-29.91,23.32l44.86,79.88c0.64,1.28,0.95,2.45,0.95,3.51
			c0,1.71-0.64,3.25-1.91,4.63c-1.27,1.39-2.86,2.08-4.77,2.08h-35.31c-3.82,0-6.68-1.01-8.59-3.04c-1.91-2.02-3.29-3.88-4.14-5.59
			l-38.81-73.17H597.3v73.81c0,2.35-0.75,4.26-2.23,5.75c-1.49,1.49-3.39,2.24-5.73,2.24H554.67z M597.3,520.98h40.72
			c11.66,0,20.31-2.66,25.93-7.99c5.62-5.32,8.43-12.78,8.43-22.37c0-9.59-2.76-17.14-8.27-22.69c-5.52-5.54-14.21-8.31-26.09-8.31
			H597.3V520.98z"/>
	</g>
</g>
</svg>
